<svg display="none" xmlns="http://www.w3.org/2000/svg">

<symbol id='search-logo' viewBox="0 0 32 32">
<path d="M 19 3 C 13.488281 3 9 7.488281 9 13 C 9 15.394531 9.839844 17.589844 11.25 19.3125 L 3.28125 27.28125 L 4.71875 28.71875 L 12.6875 20.75 C 14.410156 22.160156 16.605469 23 19 23 C 24.511719 23 29 18.511719 29 13 C 29 7.488281 24.511719 3 19 3 Z M 19 5 C 23.429688 5 27 8.570313 27 13 C 27 17.429688 23.429688 21 19 21 C 14.570313 21 11 17.429688 11 13 C 11 8.570313 14.570313 5 19 5 Z"/>
</symbol>

<symbol id='filters' viewBox="0 0 32 32">
  <path d="M28,9H11a1,1,0,0,1,0-2H28a1,1,0,0,1,0,2Z"/>
  <path d="M7,9H4A1,1,0,0,1,4,7H7A1,1,0,0,1,7,9Z"/>
  <path d="M21,17H4a1,1,0,0,1,0-2H21a1,1,0,0,1,0,2Z"/>
  <path d="M11,25H4a1,1,0,0,1,0-2h7a1,1,0,0,1,0,2Z"/>
  <path d="M9,11a3,3,0,1,1,3-3A3,3,0,0,1,9,11ZM9,7a1,1,0,1,0,1,1A1,1,0,0,0,9,7Z"/>
  <path d="M23,19a3,3,0,1,1,3-3A3,3,0,0,1,23,19Zm0-4a1,1,0,1,0,1,1A1,1,0,0,0,23,15Z"/>
  <path d="M13,27a3,3,0,1,1,3-3A3,3,0,0,1,13,27Zm0-4a1,1,0,1,0,1,1A1,1,0,0,0,13,23Z"/>
  <path d="M28,17H25a1,1,0,0,1,0-2h3a1,1,0,0,1,0,2Z"/>
  <path d="M28,25H15a1,1,0,0,1,0-2H28a1,1,0,0,1,0,2Z"/>
</symbol>


 <symbol id="close-filters" viewBox="0 0 32 32">
  <path fill-rule="evenodd" d="M2 12C2 6.477 6.477 2 12 2s10 4.477 10 10-4.477 10-10 10S2 17.523 2 12Zm7.707-3.707a1 1 0 0 0-1.414 1.414L10.586 12l-2.293 2.293a1 1 0 1 0 1.414 1.414L12 13.414l2.293 2.293a1 1 0 0 0 1.414-1.414L13.414 12l2.293-2.293a1 1 0 0 0-1.414-1.414L12 10.586 9.707 8.293Z" clip-rule="evenodd"/>
  </symbol>

  <symbol id="no-image" viewBox="0 0 32 32">
  <path d="m30 3.4141-1.4141-1.4141-26.5859 26.5859 1.4141 1.4141 2-2h20.5859a2.0027 2.0027 0 0 0 2-2v-20.5859zm-4 22.5859h-18.5859l7.7929-7.793 2.3788 2.3787a2 2 0 0 0 2.8284 0l1.5858-1.5857 4 3.9973zm0-5.8318-2.5858-2.5859a2 2 0 0 0 -2.8284 0l-1.5858 1.5859-2.377-2.3771 9.377-9.377z"/><path d="m6 22v-3l5-4.9966 1.3733 1.3733 1.4159-1.416-1.375-1.375a2 2 0 0 0 -2.8284 0l-3.5858 3.5859v-10.1716h16v-2h-16a2.002 2.002 0 0 0 -2 2v16z"/><path d="m0 0h32v32h-32z" fill="none"/>
  </symbol>

</svg>
